<svg width="33" height="41" viewBox="0 0 33 41" fill="none" xmlns="http://www.w3.org/2000/svg">
<g id="ri:shopping-basket-fill">
<path id="Vector" d="M16.5069 3.71631C18.6949 3.71631 20.7933 4.76988 22.3405 6.64524C23.8877 8.5206 24.7569 11.0641 24.7569 13.7163V15.383H30.2569V18.7163H28.6522L27.6114 33.8546C27.5828 34.2711 27.4261 34.6594 27.1724 34.9424C26.9188 35.2255 26.5867 35.3827 26.2419 35.383H6.77187C6.42685 35.3832 6.09438 35.2261 5.84043 34.943C5.58649 34.6599 5.42964 34.2714 5.401 33.8546L4.36012 18.7163H2.75687V15.383H8.25687V13.7163C8.25687 11.0641 9.12607 8.5206 10.6732 6.64524C12.2204 4.76988 14.3188 3.71631 16.5069 3.71631ZM17.8819 22.0496H15.1319V28.7163H17.8819V22.0496ZM12.3819 22.0496H9.63187V28.7163H12.3819V22.0496ZM23.3819 22.0496H20.6319V28.7163H23.3819V22.0496ZM16.5069 7.04964C15.0958 7.04964 13.7387 7.70703 12.7163 8.88585C11.6938 10.0647 11.0843 11.6747 11.0137 13.383L11.0069 13.7163V15.383H22.0069V13.7163C22.0069 12.0059 21.4645 10.3609 20.492 9.12162C19.5195 7.88232 18.1912 7.1435 16.7819 7.05798L16.5069 7.04964Z" fill="white"/>
</g>
</svg>
