<svg width="32" height="33" viewBox="0 0 32 33" fill="none" xmlns="http://www.w3.org/2000/svg">
<g id="Vector" filter="url(#filter0_d_242_124)">
<path d="M17.1567 0.634003L15.4775 3.22671C13.3104 1.4679 10.2491 0.922665 7.87017 1.41158C4.63266 2.07672 1.91522 5.01148 2.05023 9.2536C2.19256 13.7249 5.30279 16.9912 8.28603 19.6824C9.77765 21.0278 11.3085 22.2526 12.4433 23.3531C14.6837 25.385 15.7691 28.8631 15.7691 28.8631C15.7691 28.8631 17.2277 25.3136 19.0949 23.5198C20.2656 22.4043 21.8104 21.1569 23.3352 19.7658C26.3849 16.9834 29.5421 13.5599 29.4047 9.17033C29.4047 1.87425 22.1993 1.95151 19.424 4.48784C20.5727 3.87783 21.8091 3.74832 22.9195 3.99785C24.9585 4.45617 26.6467 6.14149 26.7441 9.25378C26.837 12.2317 24.4202 15.1051 21.5059 17.7636C20.0489 19.0926 18.5481 20.2955 17.2656 21.5175C16.5846 22.1668 16.2704 22.7413 15.769 23.4142C15.2674 22.6994 14.9568 22.0979 14.2725 21.4342C10.9822 17.6786 5.75467 13.6267 5.54576 9.17027C5.50296 5.45864 9.83234 4.48128 12.1594 6.12556L9.4292 7.63229C13.4358 8.29706 16.8455 9.86093 20.4631 12.1414L17.1567 0.634003H17.1567Z" fill="#FFFFFF"/>
</g>
</svg>
